<?xml version="1.0"?>
<svg width="255.68748" height="255.68749" xmlns="http://www.w3.org/2000/svg" xmlns:svg="http://www.w3.org/2000/svg" version="1.1">
  <g id="svg_625" transform="matrix(2.11083, 0, 0, 2.11083, 66.4157, -27.942)">
   <rect fill="#FF0000" height="35.1" id="svg_628" stroke="#000000" width="12.66" x="20.25" y="67.02"/>
   <rect fill="#FF0000" fill-opacity="null" height="52.06" id="svg_627" stroke="#000000" stroke-dasharray="null" stroke-linecap="null" stroke-linejoin="null" stroke-opacity="null" width="2.15" x="18.1" y="58.67"/>
   <rect fill="#FF0000" fill-opacity="null" height="52.06" id="svg_626" stroke="#000000" stroke-dasharray="null" stroke-linecap="null" stroke-linejoin="null" stroke-opacity="null" width="2.15" x="31.95" y="58.67"/>
  </g>
  <polygon fill="#000000" id="polygon10" points="17808.427734375,14966.47265625 17728.427734375,14796.47265625 17808.427734375,14626.47265625 17888.427734375,14796.47265625 " stroke="#ffffff" stroke-width="40"/>

  <g id="svg_633" transform="matrix(1, 0, 0, 1, 0, 0)">
   <g id="svg_634">
    <circle clip-rule="evenodd" cx="298.21" cy="11.47" fill="#a91b0d" fill-rule="evenodd" id="svg_635" r="7.31" stroke="#111111" transform="matrix(0.993455, 0, 0, 0.993455, -174.643, 53.7863)"/>
    <path d="m139.21,81.87c0,-0.01 0,-0.02 0,-0.03c0,-4.56 -3.69,-8.25 -8.25,-8.25c-0.01,0 -0.03,0 -0.05,0l0,-0.01l-18.61,0l0,0.01c-4.55,0 -8.25,3.69 -8.25,8.25c0,0.01 0.01,0.02 0.01,0.03l-0.05,0l0,22.21l0,0c0,1.95 1.57,3.52 3.52,3.52c1.95,0 3.52,-1.57 3.52,-3.52l0,0l0,-17.99c0.06,-0.29 0.31,-0.52 0.62,-0.52c0.36,0 0.64,0.29 0.64,0.64l0,53.35c0,2.46 2.01,4.46 4.47,4.46c2.46,0 4.47,-2 4.47,-4.46l0,-31.65c0,-0.2 0.17,-0.37 0.37,-0.37s0.37,0.17 0.37,0.37l0,31.65c0,2.46 2.01,4.46 4.47,4.46c2.46,0 4.46,-2 4.46,-4.46l0,-53.46c0.06,-0.3 0.31,-0.53 0.63,-0.53c0.35,0 0.64,0.29 0.64,0.64l0,17.87l0,0c0,1.95 1.57,3.52 3.52,3.52s3.52,-1.57 3.52,-3.52l0,0l0,-22.21l0,0z" fill="#a91b0d" id="svg_636" stroke="#111111"/>
   </g>
   <g id="svg_637">
    <path d="m121.18,93.43l0,7.2c0,0 0.17,1.89 -1.44,1.89l-6.34,0c-1.61,0 -1.44,-1.89 -1.44,-1.89l0,-7.2l9.21,0z" fill="#000000" fill-rule="nonzero" id="svg_638"/>
    <path d="m118.27,73.93c-0.22,-0.53 -0.62,-0.88 -1.07,-0.88l-2.04,0.01c-0.72,0 -1.3,0.86 -1.3,1.92c0,0.37 0.07,0.72 0.2,1.01l0.02,0.03c0.6,1.26 0.96,2.8 0.96,4.46c0,2.82 -1.02,5.29 -2.54,6.65l-0.02,0.01c-0.29,0.27 -0.49,0.75 -0.49,1.3l0,2.29l9.21,0l0,-8.4c0,0 0.01,-0.77 -0.34,-1.74l-2.58,-6.67l0,0z" fill="#000000" fill-rule="nonzero" id="svg_639"/>
    <path d="m124.97,73.93c0.22,-0.53 0.62,-0.88 1.07,-0.88l2.04,0.01c0.72,0 1.3,0.86 1.3,1.92c0,0.37 -0.07,0.72 -0.2,1.01l-0.02,0.03c-0.6,1.26 -0.95,2.8 -0.95,4.46c0,2.82 1.02,5.29 2.54,6.65l0.01,0.01c0.29,0.27 0.49,0.75 0.49,1.3l0,2.29l-9.21,0l0,-8.4c0,0 -0.01,-0.77 0.34,-1.74l2.58,-6.67l0,0z" fill="#000000" fill-rule="nonzero" id="svg_640"/>
    <path d="m131.25,93.43l0,7.2c0,0 0.17,1.89 -1.44,1.89l-6.34,0c-1.61,0 -1.44,-1.89 -1.44,-1.89l0,-7.2l9.21,0z" fill="#000000" fill-rule="nonzero" id="svg_641"/>
    <path d="m122.4,92.76c0.24,0 0.43,-0.29 0.43,-0.64c0,-0.35 -0.19,-0.64 -0.43,-0.64l-1.47,0c-0.24,0 -0.43,0.29 -0.43,0.64c0,0.36 0.19,0.64 0.43,0.64l1.47,0z" fill="#000000" fill-rule="nonzero" id="svg_642"/>
   </g>
  </g>
  <rect fill="#FF0000" height="35.1" id="svg_453" stroke="#000000" transform="matrix(1, 0, 0, 1, 0, 0) matrix(2.11083, 0, 0, 2.11083, 66.4157, -27.942)" width="11.53" x="20.37" y="67.65"/>
  <g id="svg_650">
   <circle cx="68.71" cy="92.77" fill="#000000" id="svg_651" r="6" stroke="#fefefe" transform="matrix(1.27994, 0, 0, 1.27994, 33.2878, 1.2663)"/>
   <path d="m140.76,154.97c0,0 0,-0.01 0,-0.01c0,-0.1 -0.03,-0.23 -0.04,-0.35c-0.05,-0.38 -0.13,-0.79 -0.27,-1.25l-0.04,-0.17l-5.75,-19.15l0,0c-0.35,-1.14 -0.88,-2.11 -1.63,-2.93c-1.37,-1.51 -3.26,-2.27 -5.66,-2.27l-0.44,0l-0.91,0l-1.34,0l-6.94,0l-1.34,0l-1.34,0c-2.41,0 -4.29,0.76 -5.66,2.27c-0.74,0.82 -1.28,1.79 -1.63,2.93l0,0l-5.75,19.15l-0.05,0.17c-0.14,0.47 -0.22,0.9 -0.26,1.28c0,0.03 -0.01,0.04 -0.01,0.05c-0.01,0.1 -0.03,0.22 -0.03,0.32c-0.01,0.06 -0.03,0.12 -0.03,0.18c0,1.5 1.22,2.71 2.71,2.71c0.14,0 0.28,-0.03 0.42,-0.04c1.02,-0.17 1.84,-0.9 2.15,-1.87l0.08,-0.27l0.29,-0.95l0.9,-3.01l0.55,-1.83l3.52,-11.74l2.18,0l-9.37,32.25l8.84,0l0,16.52l0,2.59l0,4.99c0,0.1 0.04,0.18 0.04,0.27c-0.01,0.14 -0.04,0.28 -0.04,0.42c0,1.72 1.4,3.11 3.11,3.11s3.11,-1.4 3.11,-3.11c0,-0.12 -0.03,-0.23 -0.04,-0.35c0.03,-0.12 0.06,-0.22 0.06,-0.35l0,-4.99l0,-2.59l0,-16.32c0.35,0.01 0.69,0.01 1.04,0.01c0.35,0 0.69,-0.01 1.04,-0.01l0,16.32l0,2.59l0,4.99c0,0.1 0.04,0.18 0.04,0.27c-0.01,0.14 -0.04,0.28 -0.04,0.42c0,1.72 1.4,3.11 3.11,3.11s3.11,-1.4 3.11,-3.11c0,-0.12 -0.03,-0.23 -0.04,-0.33c0.03,-0.12 0.06,-0.23 0.06,-0.36l0,-4.99l0,-2.59l0,-16.52l8.83,0l-9.36,-32.25l2.18,0l3.52,11.74l0.55,1.83l0.9,3.01l0.29,0.96l0,0.01c0.24,1.09 1.13,1.93 2.23,2.11c0.14,0.01 0.28,0.04 0.42,0.04c1.5,0 2.71,-1.22 2.71,-2.71c0,-0.08 -0.01,-0.14 -0.03,-0.22z" fill="#000000" id="svg_652" stroke="#fefefe"/>
  </g>
  <g id="svg_28">
   <g id="svg_26">
    <circle clip-rule="evenodd" cx="298.21" cy="112.13" fill="#a91b0d" fill-rule="evenodd" id="svg_23" r="7.31" stroke="#111111" transform="matrix(0.993455, 0, 0, 0.993455, -174.643, 53.7863)"/>
    <path d="m139.21,181.87c0,-0.01 0,-0.02 0,-0.03c0,-4.56 -3.69,-8.25 -8.25,-8.25c-0.01,0 -0.03,0 -0.05,0l0,-0.01l-18.61,0l0,0.01c-4.55,0 -8.25,3.69 -8.25,8.25c0,0.01 0.01,0.02 0.01,0.03l-0.05,0l0,22.21l0,0c0,1.95 1.57,3.52 3.52,3.52c1.95,0 3.52,-1.57 3.52,-3.52l0,0l0,-17.99c0.06,-0.29 0.31,-0.52 0.62,-0.52c0.36,0 0.64,0.29 0.64,0.64l0,53.35c0,2.46 2.01,4.46 4.47,4.46c2.46,0 4.47,-2 4.47,-4.46l0,-31.65c0,-0.2 0.17,-0.37 0.37,-0.37s0.37,0.17 0.37,0.37l0,31.65c0,2.46 2.01,4.46 4.47,4.46c2.46,0 4.46,-2 4.46,-4.46l0,-53.46c0.06,-0.3 0.31,-0.53 0.63,-0.53c0.35,0 0.64,0.29 0.64,0.64l0,17.87l0,0c0,1.95 1.57,3.52 3.52,3.52s3.52,-1.57 3.52,-3.52l0,0l0,-22.21l0,0z" fill="#a91b0d" id="svg_22" stroke="#111111"/>
   </g>
   <g id="svg_1">
    <path d="m121.18,193.43l0,7.2c0,0 0.17,1.89 -1.44,1.89l-6.34,0c-1.61,0 -1.44,-1.89 -1.44,-1.89l0,-7.2l9.21,0z" fill="#000000" fill-rule="nonzero" id="path11842"/>
    <path d="m118.27,173.93c-0.22,-0.53 -0.62,-0.88 -1.07,-0.88l-2.04,0.01c-0.72,0 -1.3,0.86 -1.3,1.92c0,0.37 0.07,0.72 0.2,1.01l0.02,0.03c0.6,1.26 0.96,2.8 0.96,4.46c0,2.82 -1.02,5.29 -2.54,6.65l-0.02,0.01c-0.29,0.27 -0.49,0.75 -0.49,1.3l0,2.29l9.21,0l0,-8.4c0,0 0.01,-0.77 -0.34,-1.74l-2.58,-6.67l0,0z" fill="#000000" fill-rule="nonzero" id="path11846"/>
    <path d="m124.97,173.93c0.22,-0.53 0.62,-0.88 1.07,-0.88l2.04,0.01c0.72,0 1.3,0.86 1.3,1.92c0,0.37 -0.07,0.72 -0.2,1.01l-0.02,0.03c-0.6,1.26 -0.95,2.8 -0.95,4.46c0,2.82 1.02,5.29 2.54,6.65l0.01,0.01c0.29,0.27 0.49,0.75 0.49,1.3l0,2.29l-9.21,0l0,-8.4c0,0 -0.01,-0.77 0.34,-1.74l2.58,-6.67l0,0z" fill="#000000" fill-rule="nonzero" id="path11850"/>
    <path d="m131.25,193.43l0,7.2c0,0 0.17,1.89 -1.44,1.89l-6.34,0c-1.61,0 -1.44,-1.89 -1.44,-1.89l0,-7.2l9.21,0z" fill="#000000" fill-rule="nonzero" id="path11854"/>
    <path d="m122.4,192.76c0.24,0 0.43,-0.29 0.43,-0.64c0,-0.35 -0.19,-0.64 -0.43,-0.64l-1.47,0c-0.24,0 -0.43,0.29 -0.43,0.64c0,0.36 0.19,0.64 0.43,0.64l1.47,0z" fill="#000000" fill-rule="nonzero" id="path11858"/>
   </g>
  </g>
</svg>
