<svg width="96" height="96" xmlns="http://www.w3.org/2000/svg" xmlns:xlink="http://www.w3.org/1999/xlink" version="1.1" x="0px" y="0px" viewBox="0 0 80 80" enable-background="new 0 0 80 80" xml:space="preserve"><circle fill="#000000" stroke="#fefefe" cx="39.998" cy="12.392" r="6"></circle><path fill="#000000" stroke="#fefefe" d="M55.262,39.706c0-0.001,0-0.003-0.001-0.004c-0.004-0.085-0.022-0.184-0.033-0.275   c-0.036-0.298-0.096-0.619-0.205-0.982l-0.037-0.124l-4.488-14.96h-0.001c-0.266-0.887-0.687-1.65-1.27-2.292   c-1.071-1.18-2.545-1.769-4.422-1.769h-0.338h-0.711h-1.048h-5.42H36.24h-1.049c-1.878,0-3.352,0.589-4.422,1.769   c-0.582,0.642-1.003,1.405-1.27,2.292h-0.001l-4.488,14.96l-0.037,0.124c-0.112,0.374-0.173,0.703-0.207,1.007   c-0.001,0.013-0.003,0.026-0.005,0.04c-0.015,0.08-0.019,0.163-0.025,0.245c-0.003,0.049-0.015,0.096-0.015,0.146   c0,1.167,0.949,2.117,2.117,2.117c0.113,0,0.221-0.016,0.329-0.033c0.801-0.125,1.446-0.697,1.683-1.456l0.063-0.213l0.222-0.739   l0.705-2.349l0.43-1.433l2.75-9.166h1.697l-7.313,25.198h6.906v12.908v2.023v3.904c0,0.078,0.025,0.139,0.033,0.211   c-0.015,0.107-0.033,0.213-0.033,0.322c0,1.342,1.088,2.43,2.43,2.43s2.43-1.088,2.43-2.43c0-0.09-0.017-0.174-0.026-0.262   c0.013-0.092,0.042-0.17,0.042-0.271V66.74v-2.023V51.973c0.269,0.002,0.539,0.004,0.811,0.004c0.274,0,0.544-0.002,0.813-0.004   v12.744v2.023v3.904c0,0.078,0.025,0.137,0.033,0.209c-0.015,0.107-0.033,0.213-0.033,0.324c0,1.342,1.088,2.43,2.43,2.43   s2.43-1.088,2.43-2.43c0-0.088-0.017-0.172-0.026-0.258c0.013-0.094,0.043-0.174,0.043-0.275V66.74v-2.023V51.809h6.906   l-7.312-25.198h1.697l2.75,9.165l0.431,1.434l0.704,2.35l0.225,0.748l0.005,0.017c0.182,0.85,0.875,1.504,1.741,1.641   c0.107,0.018,0.216,0.033,0.328,0.033c1.168,0,2.117-0.949,2.117-2.117C55.279,39.821,55.267,39.765,55.262,39.706z"></path></svg>