<svg width="96" height="96" xmlns="http://www.w3.org/2000/svg" xmlns:xlink="http://www.w3.org/1999/xlink" version="1.1" x="0px" y="0px" viewBox="0 0 100 100" enable-background="new 0 0 100 100" xml:space="preserve">
    <circle stroke="#fefefe" fill="#111111" fill-rule="evenodd" clip-rule="evenodd" cx="50" cy="13.979" r="7.312"/>
    <path stroke="#fefefe" fill="#111111" d="
        M67.709,30.771c0-0.012,0.003-0.023,0.003-0.034c0-4.584-3.716-8.3-8.302-8.3c-0.015,0-0.029,0.002-0.046,0.002v-0.014
            h-18.73v0.012c-4.583,0-8.3,3.716-8.3,8.3c0,0.011,0.003,0.021,0.003,0.034h-0.049v22.358l0,0c0,1.956,1.584,3.543,3.54,3.543
            c1.958,0,3.545-1.587,3.545-3.543l0,0V35.021c0.058-0.296,0.307-0.523,0.618-0.523c0.354,0,0.643,0.288,0.643,0.643v53.695
            c0,2.483,2.017,4.497,4.496,4.497c2.484,0,4.499-2.014,4.499-4.497V56.983c0-0.206,0.166-0.372,0.371-0.372s0.371,0.166,0.371,0.372
            v31.853c0,2.483,2.015,4.497,4.497,4.497c2.481,0,4.496-2.014,4.496-4.497V35.028c0.056-0.298,0.307-0.529,0.621-0.529
            c0.354,0,0.642,0.288,0.642,0.643v17.988l0,0c0,1.956,1.587,3.543,3.543,3.543s3.542-1.587,3.542-3.543l0,0V30.771H67.709z
        "/>
    <svg xmlns="http://www.w3.org/2000/svg" xmlns:xlink="http://www.w3.org/1999/xlink" version="1.1"
    x="1.2175" y="1.75" width="59.5" height="70" preserveAspectRatio="none" viewBox="-250 -55 460.68748 355.68749">
        <path fill="#0044cb" d="m 124.2554,155.74907 0,38.6962 c 0,0 1.35114,10.18117 -11.43,10.18117 l -50.387254,0 c -12.774083,0 -11.43,-10.18117 -11.43,-10.18117 l 0,-38.6962 73.247254,0 z"/>
        <path fill="#0044cb" d="m 101.05673,51.01641 c -1.763889,-2.843389 -4.914195,-4.73075 -8.509,-4.73075 l -16.248945,0.0388 c -5.697361,0 -10.31875,4.624917 -10.31875,10.322278 0,2.007306 0.564444,3.866445 1.548694,5.450417 l 0.123472,0.179916 c 4.797778,6.787445 7.602361,15.053028 7.602361,23.985361 0,15.158863 -8.089194,28.419773 -20.196527,35.697583 l -0.123472,0.0811 c -2.328333,1.46755 -3.887611,4.01814 -3.887611,6.98853 l 0,12.29783 73.278998,0 0,-45.137915 c 0,0 0.0811,-4.162778 -2.72344,-9.3345 L 101.05673,51.01641 z"/>
        <path fill="#0044cb" d="m 154.36498,51.01641 c 1.77095,-2.843389 4.92125,-4.73075 8.509,-4.73075 l 16.256,0.0388 c 5.69736,0 10.32228,4.624917 10.32228,10.322278 0,2.007306 -0.5715,3.866445 -1.55222,5.450417 l -0.13053,0.179916 c -4.78014,6.787445 -7.59178,15.053028 -7.59178,23.985361 0,15.158863 8.09625,28.419773 20.193,35.697583 l 0.11289,0.0811 c 2.3495,1.46755 3.90525,4.01814 3.90525,6.98853 l 0,12.29783 -73.27547,0 0,-45.137915 c 0,0 -0.0988,-4.162778 2.71286,-9.3345 L 154.36498,51.01641 z"/>
        <path fill="#0044cb" d="m 204.34654,155.74907 0,38.6962 c 0,0 1.35114,10.18117 -11.41589,10.18117 l -50.40137,0 c -12.76702,0 -11.42294,-10.18117 -11.42294,-10.18117 l 0,-38.6962 73.2402,0 z"/>
        <path fill="#0044cb" d="m 133.91092,152.1578 c 1.90853,0 3.45017,-1.54164 3.45017,-3.44311 0,-1.90853 -1.54164,-3.4537 -3.45017,-3.4537 l -11.70869,0 c -1.90853,0 -3.45722,1.54517 -3.45722,3.4537 0,1.90147 1.54869,3.44311 3.45722,3.44311 l 11.70869,0 z"/>
    </svg>
</svg>
