<svg width="96" height="96" xmlns="http://www.w3.org/2000/svg" viewBox="0 0 100 100"><circle stroke="#fefefe" fill="#111" fill-rule="evenodd" clip-rule="evenodd" cx="50" cy="13.979" r="7.312"/><path stroke="#fefefe" fill="#111" d="M67.709 30.771c0-.012.003-.023.003-.034a8.3 8.3 0 00-8.302-8.3l-.046.002v-.014h-18.73v.012a8.3 8.3 0 00-8.3 8.3c0 .011.003.021.003.034h-.049v22.358h0a3.541 3.541 0 107.085 0h0V35.021a.634.634 0 01.618-.523c.354 0 .643.288.643.643v53.695a4.5 4.5 0 004.496 4.497 4.499 4.499 0 004.499-4.497V56.983a.371.371 0 11.742 0v31.853a4.498 4.498 0 004.497 4.497 4.498 4.498 0 004.496-4.497V35.028a.637.637 0 01.621-.529c.354 0 .642.288.642.643V53.13h0a3.543 3.543 0 007.085 0h0V30.771h-.003z"/></svg>