<svg width="96" height="96" xmlns="http://www.w3.org/2000/svg" xmlns:xlink="http://www.w3.org/1999/xlink" overflow="hidden"><defs><clipPath id="clip0"><rect x="371" y="464" width="96" height="96"/></clipPath></defs><g clip-path="url(#clip0)" transform="translate(-371 -464)"><path d="M455 489 435 489 435 482C435 478.134 431.866 475 428 475L410 475C406.134 475 403 478.134 403 482L403 489 383 489C380.791 489 379 490.791 379 493L379 541C379 543.209 380.791 545 383 545L455 545C457.209 545 459 543.209 459 541L459 493C459 490.791 457.209 489 455 489ZM409 482C408.966 481.482 409.358 481.034 409.876 481 409.917 480.997 409.959 480.997 410 481L428 481C428.518 480.966 428.966 481.358 429 481.876 429.003 481.917 429.003 481.959 429 482L429 489 409 489ZM434 521 430 528 423 524 423 532 415 532 415 523.93 408 527.93 404 521 411 517 404 513 408 506 415 510 415 502 423 502 423 510.07 430 506.07 434 513 427 517Z" stroke="#000000" fill="#C00000"/></g></svg>