<?xml version="1.0" encoding="UTF-8" standalone="no"?>
<svg
   width="96"
   height="96"
   version="1.1"
   x="0px"
   y="0px"
   viewBox="0 0 100 100"
   enable-background="new 0 0 100 100"
   xml:space="preserve"
   id="svg6653"
   sodipodi:docname="notarzt-personnel.svg"
   inkscape:version="1.2.1 (9c6d41e410, 2022-07-14)"
   xmlns:inkscape="http://www.inkscape.org/namespaces/inkscape"
   xmlns:sodipodi="http://sodipodi.sourceforge.net/DTD/sodipodi-0.dtd"
   xmlns="http://www.w3.org/2000/svg"
   xmlns:svg="http://www.w3.org/2000/svg"><defs
   id="defs6657" /><sodipodi:namedview
   id="namedview6655"
   pagecolor="#505050"
   bordercolor="#eeeeee"
   borderopacity="1"
   inkscape:showpageshadow="0"
   inkscape:pageopacity="0"
   inkscape:pagecheckerboard="0"
   inkscape:deskcolor="#505050"
   showgrid="false"
   inkscape:zoom="10.708333"
   inkscape:cx="48"
   inkscape:cy="48.046693"
   inkscape:window-width="1718"
   inkscape:window-height="1408"
   inkscape:window-x="1713"
   inkscape:window-y="1080"
   inkscape:window-maximized="0"
   inkscape:current-layer="svg6653" />
    <circle
   stroke="#fefefe"
   fill="#111111"
   fill-rule="evenodd"
   clip-rule="evenodd"
   cx="50"
   cy="13.979"
   r="7.312"
   id="circle6636" />
<g
   id="g6645">    <path
   stroke="#fefefe"
   fill="#111111"
   d="         M67.709,30.771c0-0.012,0.003-0.023,0.003-0.034c0-4.584-3.716-8.3-8.302-8.3c-0.015,0-0.029,0.002-0.046,0.002v-0.014             h-18.73v0.012c-4.583,0-8.3,3.716-8.3,8.3c0,0.011,0.003,0.021,0.003,0.034h-0.049v22.358l0,0c0,1.956,1.584,3.543,3.54,3.543             c1.958,0,3.545-1.587,3.545-3.543l0,0V35.021c0.058-0.296,0.307-0.523,0.618-0.523c0.354,0,0.643,0.288,0.643,0.643v53.695             c0,2.483,2.017,4.497,4.496,4.497c2.484,0,4.499-2.014,4.499-4.497V56.983c0-0.206,0.166-0.372,0.371-0.372s0.371,0.166,0.371,0.372             v31.853c0,2.483,2.015,4.497,4.497,4.497c2.481,0,4.496-2.014,4.496-4.497V35.028c0.056-0.298,0.307-0.529,0.621-0.529             c0.354,0,0.642,0.288,0.642,0.643v17.988l0,0c0,1.956,1.587,3.543,3.543,3.543s3.542-1.587,3.542-3.543l0,0V30.771H67.709z         "
   id="path6638" />
        <path
   d="m67.71,30.7c0,-4.62 -3.71,-8.26 -8.3,-8.26c-0.01,0 -0.03,0 -0.05,0l0,-0.01l-18.73,0l0,0.01c-4.58,0 -8.3,3.71 -8.3,8.3l-0.04,4.26l7.08,0.02c0.06,-0.29 0.31,-0.52 0.62,-0.52c0.36,0 0.64,0.29 0.64,0.64l0,53.7c0,2.48 2.02,4.49 4.5,4.49c2.48,0 4.5,-2.01 4.5,-4.49l0,-31.86c0,-0.2 0.17,-0.37 0.37,-0.37s0.37,0.17 0.37,0.37l0,31.86c0,2.48 2.02,4.49 4.5,4.49c2.48,0 4.49,-2.01 4.49,-4.49l0,-53.81c0.06,-0.3 0.31,-0.53 0.63,-0.53c0.35,0 0.64,0.29 0.64,0.64l7.08,-0.14l0,-4.3z"
   fill="#e51511"
   stroke="#fefefe"
   id="path6640" />
        <path
   d="m40.63,47.75l0.01,41.09c0,2.48 2.02,4.49 4.5,4.49c2.48,0 4.5,-2.01 4.5,-4.49l0,-31.86c0,-0.2 0.17,-0.37 0.37,-0.37s0.37,0.17 0.37,0.37l0,31.86c0,2.48 2.02,4.49 4.5,4.49c2.48,0 4.49,-2.01 4.49,-4.49l-0.01,-41.09"
   fill="#d5dbe7"
   id="svg_4"
   stroke="#fefefe" />
        <path
   d="m40.63,51l0.01,37.84c0,2.48 2.02,4.49 4.5,4.49c2.48,0 4.5,-2.01 4.5,-4.49l0,-31.86c0,-0.2 0.17,-0.37 0.37,-0.37s0.37,0.17 0.37,0.37l0,31.86c0,2.48 2.02,4.49 4.5,4.49c2.48,0 4.49,-2.01 4.49,-4.49l-0.01,-37.84"
   fill="#242d4c"
   id="path6643"
   stroke="#fefefe" />
</g>
<g
   id="g6651"
   transform="matrix(0.74734008,0,0,0.70976795,12.341167,15.365595)">
   <circle
   cx="50"
   cy="33"
   fill="#fefefe"
   id="svg_5"
   r="6.4400001"
   stroke="#a91b0d"
   stroke-linecap="round"
   stroke-linejoin="round"
   stroke-miterlimit="4"
   stroke-width="0.2" />
   <circle
   cx="50"
   cy="33"
   fill="#fefefe"
   id="svg_6"
   r="6.1999998"
   stroke="#a91b0d"
   stroke-linecap="round"
   stroke-linejoin="round"
   stroke-miterlimit="4"
   stroke-width="0.1" />
   <path
   d="M 50,27.62 V 38.4"
   fill="none"
   fill-rule="evenodd"
   id="path3210"
   stroke="#a91b0d"
   stroke-miterlimit="4"
   stroke-width="0.2" />
   <path
   d="m 48.96,28.64 c -0.02,0.68 1.51,0.33 1.51,1.13 0,0.8 -1.44,1.92 -1.42,2.76 0.01,0.76 1.43,1.78 1.42,2.54 -0.02,1 -1.26,1.57 -1.61,2.25 -0.08,0.15 0.15,0.32 0.24,0.22 0.5,-0.58 1.73,-1.37 1.76,-2.42 0.03,-0.85 -1.37,-2.12 -1.35,-2.6 0.03,-0.8 1.49,-1.65 1.52,-2.78 0.06,-1.69 -2.05,-1.81 -2.07,-1.1 z"
   fill="#a91b0d"
   fill-rule="evenodd"
   id="path3213"
   stroke-miterlimit="4" />
  </g>


<text
   xml:space="preserve"
   style="font-size:8.33333px;font-family:Arial;-inkscape-font-specification:Arial;text-align:center;text-anchor:middle;fill:#ffffff;stroke:#eeeeee;stroke-width:1.04167;stroke-opacity:0"
   x="49.805447"
   y="31.517509"
   id="text6661"><tspan
     sodipodi:role="line"
     id="tspan6659"
     style="font-weight:bold;stroke-width:1.04167"
     x="49.805447"
     y="31.517509">NA</tspan></text></svg>
