<svg width="96" height="96" xmlns="http://www.w3.org/2000/svg" xmlns:xlink="http://www.w3.org/1999/xlink" version="1.1" x="0px" y="0px" viewBox="0 0 100 100" enable-background="new 0 0 100 100" xml:space="preserve">
    <circle stroke="#fefefe" fill="#111111" fill-rule="evenodd" clip-rule="evenodd" cx="50" cy="13.979" r="7.312"/>
<g>    <path stroke="#fefefe" fill="#111111" d="
        M67.709,30.771c0-0.012,0.003-0.023,0.003-0.034c0-4.584-3.716-8.3-8.302-8.3c-0.015,0-0.029,0.002-0.046,0.002v-0.014
            h-18.73v0.012c-4.583,0-8.3,3.716-8.3,8.3c0,0.011,0.003,0.021,0.003,0.034h-0.049v22.358l0,0c0,1.956,1.584,3.543,3.54,3.543
            c1.958,0,3.545-1.587,3.545-3.543l0,0V35.021c0.058-0.296,0.307-0.523,0.618-0.523c0.354,0,0.643,0.288,0.643,0.643v53.695
            c0,2.483,2.017,4.497,4.496,4.497c2.484,0,4.499-2.014,4.499-4.497V56.983c0-0.206,0.166-0.372,0.371-0.372s0.371,0.166,0.371,0.372
            v31.853c0,2.483,2.015,4.497,4.497,4.497c2.481,0,4.496-2.014,4.496-4.497V35.028c0.056-0.298,0.307-0.529,0.621-0.529
            c0.354,0,0.642,0.288,0.642,0.643v17.988l0,0c0,1.956,1.587,3.543,3.543,3.543s3.542-1.587,3.542-3.543l0,0V30.771H67.709z
        "/>
        <path d="m67.71,30.7c0,-4.62 -3.71,-8.26 -8.3,-8.26c-0.01,0 -0.03,0 -0.05,0l0,-0.01l-18.73,0l0,0.01c-4.58,0 -8.3,3.71 -8.3,8.3l-0.04,4.26l7.08,0.02c0.06,-0.29 0.31,-0.52 0.62,-0.52c0.36,0 0.64,0.29 0.64,0.64l0,53.7c0,2.48 2.02,4.49 4.5,4.49c2.48,0 4.5,-2.01 4.5,-4.49l0,-31.86c0,-0.2 0.17,-0.37 0.37,-0.37s0.37,0.17 0.37,0.37l0,31.86c0,2.48 2.02,4.49 4.5,4.49c2.48,0 4.49,-2.01 4.49,-4.49l0,-53.81c0.06,-0.3 0.31,-0.53 0.63,-0.53c0.35,0 0.64,0.29 0.64,0.64l7.08,-0.14l0,-4.3z" fill="#e51511" stroke="#fefefe" />
        <path d="m40.63,47.75l0.01,41.09c0,2.48 2.02,4.49 4.5,4.49c2.48,0 4.5,-2.01 4.5,-4.49l0,-31.86c0,-0.2 0.17,-0.37 0.37,-0.37s0.37,0.17 0.37,0.37l0,31.86c0,2.48 2.02,4.49 4.5,4.49c2.48,0 4.49,-2.01 4.49,-4.49l-0.01,-41.09" fill="#d5dbe7" id="svg_4" stroke="#fefefe"/>
        <path d="m40.63,51l0.01,37.84c0,2.48 2.02,4.49 4.5,4.49c2.48,0 4.5,-2.01 4.5,-4.49l0,-31.86c0,-0.2 0.17,-0.37 0.37,-0.37s0.37,0.17 0.37,0.37l0,31.86c0,2.48 2.02,4.49 4.5,4.49c2.48,0 4.49,-2.01 4.49,-4.49l-0.01,-37.84" fill="#242d4c" id="svg_4" stroke="#fefefe"/>
</g>
<g>
   <circle cx="50" cy="33" fill="#fefefe" id="svg_5" r="6.44" stroke="#a91b0d" stroke-linecap="round" stroke-linejoin="round" stroke-miterlimit="4" stroke-width="0.2"/>
   <circle cx="50" cy="33" fill="#fefefe" id="svg_6" r="6.2" stroke="#a91b0d" stroke-linecap="round" stroke-linejoin="round" stroke-miterlimit="4" stroke-width="0.1"/>
   <path d="m50,27.62l0,10.78" fill="none" fill-rule="evenodd" id="path3210" stroke="#a91b0d" stroke-miterlimit="4" stroke-width="0.2"/>
   <path d="m48.96,28.64c-0.02,0.68 1.51,0.33 1.51,1.13c0,0.8 -1.44,1.92 -1.42,2.76c0.01,0.76 1.43,1.78 1.42,2.54c-0.02,1 -1.26,1.57 -1.61,2.25c-0.08,0.15 0.15,0.32 0.24,0.22c0.5,-0.58 1.73,-1.37 1.76,-2.42c0.03,-0.85 -1.37,-2.12 -1.35,-2.6c0.03,-0.8 1.49,-1.65 1.52,-2.78c0.06,-1.69 -2.05,-1.81 -2.07,-1.1z" fill="#a91b0d" fill-rule="evenodd" id="path3213" stroke-miterlimit="4"/>
  </g>


</svg>
