<svg width="130" height="130" xmlns="http://www.w3.org/2000/svg" xmlns:xlink="http://www.w3.org/1999/xlink" overflow="hidden"><defs><clipPath id="clip0"><rect x="83" y="270" width="130" height="130"/></clipPath></defs><g clip-path="url(#clip0)" transform="translate(-83 -270)"><path d="M158.833 284.896C158.833 290.879 153.983 295.729 148 295.729 142.017 295.729 137.167 290.879 137.167 284.896 137.167 278.913 142.017 274.062 148 274.062 153.983 274.062 158.833 278.913 158.833 284.896Z" stroke="#FFFFFF" stroke-width="2.57428"/><path d="M177.521 340.688 169.938 308.458C169.667 307.375 169.125 306.292 168.312 305.479 165.062 302.771 161.271 300.875 156.938 299.521 153.958 298.979 150.979 298.438 148 298.438 145.021 298.438 142.042 298.979 139.062 299.792 134.729 300.875 130.938 303.042 127.688 305.75 126.875 306.562 126.333 307.646 126.062 308.729L118.479 340.958C118.479 341.229 118.208 341.771 118.208 342.312 118.208 345.292 120.646 347.729 123.625 347.729 126.062 347.729 128.229 345.833 128.771 343.667L134.458 320.104 134.458 395.938 145.292 395.938 145.292 347.188 150.708 347.188 150.708 395.938 161.542 395.938 161.542 319.833 167.229 343.396C167.771 345.562 169.938 347.458 172.375 347.458 175.354 347.458 177.792 345.021 177.792 342.042 177.792 341.5 177.521 340.958 177.521 340.688Z" stroke="#FFFFFF" stroke-width="2.57428"/></g></svg>