<?xml version="1.0" encoding="UTF-8" standalone="no"?>
<svg
   xmlns:dc="http://purl.org/dc/elements/1.1/"
   xmlns:cc="http://creativecommons.org/ns#"
   xmlns:rdf="http://www.w3.org/1999/02/22-rdf-syntax-ns#"
   xmlns:svg="http://www.w3.org/2000/svg"
   xmlns="http://www.w3.org/2000/svg"
   xmlns:sodipodi="http://sodipodi.sourceforge.net/DTD/sodipodi-0.dtd"
   xmlns:inkscape="http://www.inkscape.org/namespaces/inkscape"
   width="150"
   height="150"
   class="bi bi-trash-fill"
   viewBox="0 0 150 150"
   version="1.1"
   id="svg4"
   sodipodi:docname="trash-can.svg"
   style="fill:currentColor"
   inkscape:version="0.92.5 (2060ec1f9f, 2020-04-08)">
  <metadata
     id="metadata10">
    <rdf:RDF>
      <cc:Work
         rdf:about="">
        <dc:format>image/svg+xml</dc:format>
        <dc:type
           rdf:resource="http://purl.org/dc/dcmitype/StillImage" />
        <dc:title></dc:title>
      </cc:Work>
    </rdf:RDF>
  </metadata>
  <defs
     id="defs8" />
  <sodipodi:namedview
     pagecolor="#ffffff"
     bordercolor="#666666"
     borderopacity="1"
     objecttolerance="10"
     gridtolerance="10"
     guidetolerance="10"
     inkscape:pageopacity="0"
     inkscape:pageshadow="2"
     inkscape:window-width="1848"
     inkscape:window-height="1016"
     id="namedview6"
     showgrid="false"
     inkscape:zoom="3.2734375"
     inkscape:cx="64"
     inkscape:cy="128"
     inkscape:window-x="72"
     inkscape:window-y="27"
     inkscape:window-maximized="1"
     inkscape:current-layer="svg4" />
  <rect
     id="rect7"
     width="272.80191"
     height="259.66586"
     x="-3.9713604"
     y="-107.83293"
     style="fill:#ffffff;fill-opacity:0.00392157" />
  <path
     d="m 5.5,93 a 4,4 0 0 0 -4,4 v 4 a 4,4 0 0 0 4,4 h 2 v 36 a 8,8 0 0 0 8,8 h 24 a 8,8 0 0 0 8,-8 v -36 h 2 a 4,4 0 0 0 4,-4 v -4 a 4,4 0 0 0 -4,-4 h -14 a 4,4 0 0 0 -4,-4 h -8 a 4,4 0 0 0 -4,4 z m 12,16 a 2,2 0 0 1 2,2 v 28 a 2,2 0 0 1 -4,0 v -28 a 2,2 0 0 1 2,-2 z m 10,0 a 2,2 0 0 1 2,2 v 28 a 2,2 0 0 1 -4,0 v -28 a 2,2 0 0 1 2,-2 z m 12,2 v 28 a 2,2 0 0 1 -4,0 v -28 a 2,2 0 0 1 4,0 z"
     id="path2"
     inkscape:connector-curvature="0"
     style="stroke-width:4" />
</svg>
