<?xml version="1.0" encoding="UTF-8" standalone="no"?>
<svg
   xmlns:dc="http://purl.org/dc/elements/1.1/"
   xmlns:cc="http://creativecommons.org/ns#"
   xmlns:rdf="http://www.w3.org/1999/02/22-rdf-syntax-ns#"
   xmlns:svg="http://www.w3.org/2000/svg"
   xmlns="http://www.w3.org/2000/svg"
   xmlns:sodipodi="http://sodipodi.sourceforge.net/DTD/sodipodi-0.dtd"
   xmlns:inkscape="http://www.inkscape.org/namespaces/inkscape"
   width="64"
   height="64"
   class="bi bi-trash-fill"
   viewBox="0 0 64 64"
   version="1.1"
   id="svg4"
   sodipodi:docname="trash-can.svg"
   style="fill:currentColor"
   inkscape:version="0.92.5 (2060ec1f9f, 2020-04-08)">
  <metadata
     id="metadata10">
    <rdf:RDF>
      <cc:Work
         rdf:about="">
        <dc:format>image/svg+xml</dc:format>
        <dc:type
           rdf:resource="http://purl.org/dc/dcmitype/StillImage" />
        <dc:title></dc:title>
      </cc:Work>
    </rdf:RDF>
  </metadata>
  <defs
     id="defs8" />
  <sodipodi:namedview
     pagecolor="#ffffff"
     bordercolor="#666666"
     borderopacity="1"
     objecttolerance="10"
     gridtolerance="10"
     guidetolerance="10"
     inkscape:pageopacity="0"
     inkscape:pageshadow="2"
     inkscape:window-width="3368"
     inkscape:window-height="1376"
     id="namedview6"
     showgrid="false"
     inkscape:zoom="14.75"
     inkscape:cx="8.1355932"
     inkscape:cy="7.6610169"
     inkscape:window-x="72"
     inkscape:window-y="27"
     inkscape:window-maximized="1"
     inkscape:current-layer="svg4" />
  <path
     d="m 2.5,49 a 1,1 0 0 0 -1,1 v 1 a 1,1 0 0 0 1,1 H 3 v 9 a 2,2 0 0 0 2,2 h 6 a 2,2 0 0 0 2,-2 v -9 h 0.5 a 1,1 0 0 0 1,-1 v -1 a 1,1 0 0 0 -1,-1 H 10 A 1,1 0 0 0 9,48 H 7 a 1,1 0 0 0 -1,1 z m 3,4 A 0.5,0.5 0 0 1 6,53.5 v 7 a 0.5,0.5 0 0 1 -1,0 v -7 A 0.5,0.5 0 0 1 5.5,53 Z M 8,53 a 0.5,0.5 0 0 1 0.5,0.5 v 7 a 0.5,0.5 0 0 1 -1,0 v -7 A 0.5,0.5 0 0 1 8,53 Z m 3,0.5 v 7 a 0.5,0.5 0 0 1 -1,0 v -7 a 0.5,0.5 0 0 1 1,0 z"
     id="path2"
     inkscape:connector-curvature="0" />
</svg>
