<svg width="96" height="96" xmlns="http://www.w3.org/2000/svg" xmlns:xlink="http://www.w3.org/1999/xlink" overflow="hidden"><defs><clipPath id="clip0"><rect x="104" y="475" width="96" height="96"/></clipPath></defs><g clip-path="url(#clip0)" transform="translate(-104 -475)"><path d="M135 541C135 544.866 131.866 548 128 548 124.134 548 121 544.866 121 541 121 537.134 124.134 534 128 534 131.866 534 135 537.134 135 541Z" stroke="#000000" fill="#C00000"/><path d="M185 541C185 544.866 181.866 548 178 548 174.134 548 171 544.866 171 541 171 537.134 174.134 534 178 534 181.866 534 185 537.134 185 541Z" stroke="#000000" fill="#C00000"/><path d="M190.4 523.8 185.1 519.8C184.405 519.283 183.91 518.541 183.7 517.7L181.7 510.8C180.68 507.389 177.56 505.039 174 505L172 505 172 500C172 498.343 170.657 497 169 497L167 497C165.343 497 164 498.343 164 500L164 505 164 505 164 503C164 500.791 162.209 499 160 499L116 499C113.791 499 112 500.791 112 503L112 537C112 539.209 113.791 541 116 541L118 541C118 535.477 122.477 531 128 531 133.523 531 138 535.477 138 541L168 541C168 535.477 172.477 531 178 531 183.523 531 188 535.477 188 541 190.209 541 192 539.209 192 537L192 527C192 525.741 191.407 524.555 190.4 523.8ZM152.25 519.8 149.25 525 144 522 144 528 138 528 138 521.94 132.75 524.94 129.75 519.74 135 516.74 129.75 513.74 132.75 508.54 138 511.54 138 505.48 144 505.48 144 511.55 149.25 508.55 152.25 513.75 147 516.75ZM168 519 168 509 174 509C175.784 508.975 177.353 510.173 177.8 511.9L179.8 518.8C179.8 518.9 179.9 518.9 179.9 519Z" stroke="#000000" fill="#C00000"/><path d="M168 494 168 489" stroke="#000000" stroke-width="2" stroke-miterlimit="10" fill="none"/><path d="M172.5 495 176 491.5" stroke="#000000" stroke-width="2" stroke-miterlimit="10"/><path d="M163.5 495 160 491.5" stroke="#000000" stroke-width="2" stroke-miterlimit="10"/></g></svg>